<mxfile host="65bd71144e">
    <diagram id="9FTYdVO5cHq_8HCQ5ipV" name="一种典型的无人艇系统构成图">
        <mxGraphModel dx="1095" dy="784" grid="1" gridSize="10" guides="1" tooltips="1" connect="1" arrows="1" fold="1" page="1" pageScale="1" pageWidth="850" pageHeight="1100" math="0" shadow="0">
            <root>
                <mxCell id="0"/>
                <mxCell id="1" parent="0"/>
                <mxCell id="2" value="&lt;font style=&quot;font-size: 25px;&quot;&gt;监控站&lt;/font&gt;" style="rounded=0;whiteSpace=wrap;html=1;fillColor=#f8cecc;strokeColor=#b85450;" parent="1" vertex="1">
                    <mxGeometry x="750" y="290" width="120" height="60" as="geometry"/>
                </mxCell>
                <mxCell id="3" value="" style="shape=flexArrow;endArrow=classic;html=1;rounded=0;" parent="1" edge="1">
                    <mxGeometry width="50" height="50" relative="1" as="geometry">
                        <mxPoint x="810" y="420" as="sourcePoint"/>
                        <mxPoint x="809.5" y="350" as="targetPoint"/>
                    </mxGeometry>
                </mxCell>
                <mxCell id="4" value="" style="endArrow=none;html=1;rounded=0;strokeWidth=4;" parent="1" edge="1">
                    <mxGeometry width="50" height="50" relative="1" as="geometry">
                        <mxPoint x="715" y="440" as="sourcePoint"/>
                        <mxPoint x="905" y="440" as="targetPoint"/>
                        <Array as="points"/>
                    </mxGeometry>
                </mxCell>
                <mxCell id="5" value="&lt;font style=&quot;font-size: 19px;&quot;&gt;无线电通信&lt;/font&gt;" style="ellipse;whiteSpace=wrap;html=1;" parent="1" vertex="1">
                    <mxGeometry x="910" y="400" width="120" height="80" as="geometry"/>
                </mxCell>
                <mxCell id="6" value="&lt;font style=&quot;font-size: 19px;&quot;&gt;卫星通信&lt;/font&gt;" style="ellipse;whiteSpace=wrap;html=1;" parent="1" vertex="1">
                    <mxGeometry x="590" y="400" width="120" height="80" as="geometry"/>
                </mxCell>
                <mxCell id="7" value="" style="endArrow=classic;html=1;rounded=0;strokeWidth=4;" parent="1" edge="1">
                    <mxGeometry width="50" height="50" relative="1" as="geometry">
                        <mxPoint x="809.5" y="440" as="sourcePoint"/>
                        <mxPoint x="810" y="490" as="targetPoint"/>
                    </mxGeometry>
                </mxCell>
                <mxCell id="8" value="&lt;font style=&quot;font-size: 20px;&quot;&gt;远程通信模块&lt;/font&gt;" style="rounded=0;whiteSpace=wrap;html=1;" parent="1" vertex="1">
                    <mxGeometry x="730" y="490" width="160" height="40" as="geometry"/>
                </mxCell>
                <mxCell id="9" value="" style="shape=flexArrow;endArrow=classic;html=1;rounded=0;" parent="1" edge="1">
                    <mxGeometry width="50" height="50" relative="1" as="geometry">
                        <mxPoint x="809.5" y="540" as="sourcePoint"/>
                        <mxPoint x="810" y="610" as="targetPoint"/>
                    </mxGeometry>
                </mxCell>
                <mxCell id="10" value="Text" style="edgeLabel;html=1;align=center;verticalAlign=middle;resizable=0;points=[];" parent="9" vertex="1" connectable="0">
                    <mxGeometry x="0.025" y="2" relative="1" as="geometry">
                        <mxPoint as="offset"/>
                    </mxGeometry>
                </mxCell>
                <mxCell id="11" value="&lt;font style=&quot;font-size: 20px;&quot;&gt;指控指令&lt;/font&gt;" style="edgeLabel;html=1;align=center;verticalAlign=middle;resizable=0;points=[];" parent="9" vertex="1" connectable="0">
                    <mxGeometry x="0.025" y="1" relative="1" as="geometry">
                        <mxPoint as="offset"/>
                    </mxGeometry>
                </mxCell>
                <mxCell id="12" value="&lt;font style=&quot;font-size: 30px;&quot;&gt;智能控制&lt;/font&gt;" style="rounded=0;whiteSpace=wrap;html=1;fillColor=#fff2cc;strokeColor=#d6b656;" parent="1" vertex="1">
                    <mxGeometry x="775" y="620" width="70" height="170" as="geometry"/>
                </mxCell>
                <mxCell id="13" value="" style="endArrow=classic;startArrow=classic;html=1;rounded=0;strokeWidth=3;" parent="1" edge="1">
                    <mxGeometry width="50" height="50" relative="1" as="geometry">
                        <mxPoint x="845" y="640" as="sourcePoint"/>
                        <mxPoint x="920" y="640" as="targetPoint"/>
                    </mxGeometry>
                </mxCell>
                <mxCell id="14" value="" style="endArrow=classic;startArrow=classic;html=1;rounded=0;strokeWidth=3;" parent="1" edge="1">
                    <mxGeometry width="50" height="50" relative="1" as="geometry">
                        <mxPoint x="845" y="704.5" as="sourcePoint"/>
                        <mxPoint x="920" y="704.5" as="targetPoint"/>
                    </mxGeometry>
                </mxCell>
                <mxCell id="15" value="" style="endArrow=classic;startArrow=classic;html=1;rounded=0;strokeWidth=3;" parent="1" edge="1">
                    <mxGeometry width="50" height="50" relative="1" as="geometry">
                        <mxPoint x="845" y="760" as="sourcePoint"/>
                        <mxPoint x="920" y="760" as="targetPoint"/>
                    </mxGeometry>
                </mxCell>
                <mxCell id="16" value="" style="endArrow=classic;startArrow=classic;html=1;rounded=0;strokeWidth=3;" parent="1" edge="1">
                    <mxGeometry width="50" height="50" relative="1" as="geometry">
                        <mxPoint x="700" y="640" as="sourcePoint"/>
                        <mxPoint x="775" y="640" as="targetPoint"/>
                    </mxGeometry>
                </mxCell>
                <mxCell id="17" value="" style="endArrow=classic;startArrow=classic;html=1;rounded=0;strokeWidth=3;" parent="1" edge="1">
                    <mxGeometry width="50" height="50" relative="1" as="geometry">
                        <mxPoint x="700" y="704.5" as="sourcePoint"/>
                        <mxPoint x="775" y="704.5" as="targetPoint"/>
                    </mxGeometry>
                </mxCell>
                <mxCell id="18" value="" style="endArrow=classic;startArrow=classic;html=1;rounded=0;strokeWidth=3;" parent="1" edge="1">
                    <mxGeometry width="50" height="50" relative="1" as="geometry">
                        <mxPoint x="700" y="760" as="sourcePoint"/>
                        <mxPoint x="775" y="760" as="targetPoint"/>
                    </mxGeometry>
                </mxCell>
                <mxCell id="19" value="&lt;font style=&quot;font-size: 20px;&quot;&gt;智能打击及防御模块&lt;/font&gt;" style="rounded=0;whiteSpace=wrap;html=1;" parent="1" vertex="1">
                    <mxGeometry x="920" y="620" width="200" height="50" as="geometry"/>
                </mxCell>
                <mxCell id="20" value="&lt;font style=&quot;font-size: 20px;&quot;&gt;情报侦察模块&lt;/font&gt;" style="rounded=0;whiteSpace=wrap;html=1;" parent="1" vertex="1">
                    <mxGeometry x="920" y="680" width="200" height="50" as="geometry"/>
                </mxCell>
                <mxCell id="21" value="&lt;font style=&quot;font-size: 20px;&quot;&gt;协同控制模块&lt;/font&gt;" style="rounded=0;whiteSpace=wrap;html=1;" parent="1" vertex="1">
                    <mxGeometry x="920" y="740" width="200" height="50" as="geometry"/>
                </mxCell>
                <mxCell id="22" value="&lt;font style=&quot;font-size: 20px;&quot;&gt;环境感知模块&lt;/font&gt;" style="rounded=0;whiteSpace=wrap;html=1;" parent="1" vertex="1">
                    <mxGeometry x="500" y="620" width="200" height="50" as="geometry"/>
                </mxCell>
                <mxCell id="23" value="&lt;font style=&quot;font-size: 20px;&quot;&gt;航迹规划/跟踪&lt;/font&gt;" style="rounded=0;whiteSpace=wrap;html=1;" parent="1" vertex="1">
                    <mxGeometry x="500" y="680" width="200" height="50" as="geometry"/>
                </mxCell>
                <mxCell id="24" value="&lt;font style=&quot;font-size: 20px;&quot;&gt;故障诊断模块&lt;/font&gt;" style="rounded=0;whiteSpace=wrap;html=1;" parent="1" vertex="1">
                    <mxGeometry x="500" y="740" width="200" height="50" as="geometry"/>
                </mxCell>
                <mxCell id="25" value="" style="shape=flexArrow;endArrow=classic;html=1;rounded=0;" parent="1" edge="1">
                    <mxGeometry width="50" height="50" relative="1" as="geometry">
                        <mxPoint x="809.5" y="800" as="sourcePoint"/>
                        <mxPoint x="810" y="870" as="targetPoint"/>
                    </mxGeometry>
                </mxCell>
                <mxCell id="26" value="Text" style="edgeLabel;html=1;align=center;verticalAlign=middle;resizable=0;points=[];" parent="25" vertex="1" connectable="0">
                    <mxGeometry x="0.025" y="2" relative="1" as="geometry">
                        <mxPoint as="offset"/>
                    </mxGeometry>
                </mxCell>
                <mxCell id="27" value="&lt;font style=&quot;font-size: 20px;&quot;&gt;航行指令&lt;/font&gt;" style="edgeLabel;html=1;align=center;verticalAlign=middle;resizable=0;points=[];" parent="25" vertex="1" connectable="0">
                    <mxGeometry x="0.025" y="1" relative="1" as="geometry">
                        <mxPoint as="offset"/>
                    </mxGeometry>
                </mxCell>
                <mxCell id="28" value="&lt;font style=&quot;font-size: 20px;&quot;&gt;自动驾驶模块&lt;/font&gt;" style="rounded=0;whiteSpace=wrap;html=1;" parent="1" vertex="1">
                    <mxGeometry x="730" y="870" width="160" height="40" as="geometry"/>
                </mxCell>
                <mxCell id="29" value="&lt;font style=&quot;font-size: 24px;&quot;&gt;动力/操纵模块&lt;/font&gt;" style="html=1;shadow=0;dashed=0;align=center;verticalAlign=middle;shape=mxgraph.arrows2.arrow;dy=0.6;dx=40;direction=south;notch=0;" parent="1" vertex="1">
                    <mxGeometry x="727.5" y="920" width="165" height="100" as="geometry"/>
                </mxCell>
                <mxCell id="30" value="&lt;font style=&quot;font-size: 21px;&quot;&gt;无人艇平台&lt;br&gt;（载体模块）&lt;/font&gt;" style="rounded=0;whiteSpace=wrap;html=1;fillColor=#f8cecc;strokeColor=#b85450;" parent="1" vertex="1">
                    <mxGeometry x="720" y="1030" width="180" height="70" as="geometry"/>
                </mxCell>
                <mxCell id="31" value="&lt;font style=&quot;font-size: 20px;&quot;&gt;综合导航模块&lt;/font&gt;" style="rounded=0;whiteSpace=wrap;html=1;" parent="1" vertex="1">
                    <mxGeometry x="1000" y="870" width="160" height="40" as="geometry"/>
                </mxCell>
                <mxCell id="32" value="" style="endArrow=classic;startArrow=classic;html=1;rounded=0;entryX=0;entryY=0.5;entryDx=0;entryDy=0;strokeWidth=3;" parent="1" target="31" edge="1">
                    <mxGeometry width="50" height="50" relative="1" as="geometry">
                        <mxPoint x="892.5" y="889.5" as="sourcePoint"/>
                        <mxPoint x="982.5" y="889.5" as="targetPoint"/>
                    </mxGeometry>
                </mxCell>
                <mxCell id="33" value="" style="endArrow=classic;startArrow=classic;html=1;rounded=0;entryX=0.05;entryY=-0.1;entryDx=0;entryDy=0;entryPerimeter=0;strokeWidth=3;" parent="1" target="31" edge="1">
                    <mxGeometry width="50" height="50" relative="1" as="geometry">
                        <mxPoint x="850" y="780" as="sourcePoint"/>
                        <mxPoint x="920" y="850" as="targetPoint"/>
                    </mxGeometry>
                </mxCell>
                <mxCell id="34" value="" style="endArrow=classic;html=1;rounded=0;strokeWidth=3;entryX=1;entryY=0.5;entryDx=0;entryDy=0;entryPerimeter=0;" parent="1" target="8" edge="1">
                    <mxGeometry width="50" height="50" relative="1" as="geometry">
                        <mxPoint x="1140" y="870" as="sourcePoint"/>
                        <mxPoint x="900" y="510" as="targetPoint"/>
                        <Array as="points">
                            <mxPoint x="1140" y="510"/>
                        </Array>
                    </mxGeometry>
                </mxCell>
                <mxCell id="35" value="&lt;font style=&quot;font-size: 19px;&quot;&gt;电子海图数据库&lt;/font&gt;" style="ellipse;whiteSpace=wrap;html=1;strokeWidth=3;" parent="1" vertex="1">
                    <mxGeometry x="1210" y="700" width="80" height="135" as="geometry"/>
                </mxCell>
                <mxCell id="36" value="" style="endArrow=classic;html=1;rounded=0;strokeWidth=3;entryX=1;entryY=0.5;entryDx=0;entryDy=0;" parent="1" target="31" edge="1">
                    <mxGeometry width="50" height="50" relative="1" as="geometry">
                        <mxPoint x="1249.5" y="835" as="sourcePoint"/>
                        <mxPoint x="1249.5" y="995" as="targetPoint"/>
                        <Array as="points">
                            <mxPoint x="1250" y="890"/>
                        </Array>
                    </mxGeometry>
                </mxCell>
                <mxCell id="37" value="" style="endArrow=none;html=1;rounded=0;strokeWidth=3;" parent="1" edge="1">
                    <mxGeometry width="50" height="50" relative="1" as="geometry">
                        <mxPoint x="1250" y="1000" as="sourcePoint"/>
                        <mxPoint x="1250" y="890" as="targetPoint"/>
                    </mxGeometry>
                </mxCell>
                <mxCell id="38" value="&lt;font style=&quot;font-size: 20px;&quot;&gt;卫星导航&lt;/font&gt;" style="ellipse;whiteSpace=wrap;html=1;strokeWidth=3;" parent="1" vertex="1">
                    <mxGeometry x="1220" y="1000" width="60" height="110" as="geometry"/>
                </mxCell>
                <mxCell id="39" value="&lt;span style=&quot;font-size: 20px;&quot;&gt;风浪流感知&lt;/span&gt;" style="ellipse;whiteSpace=wrap;html=1;strokeWidth=3;" parent="1" vertex="1">
                    <mxGeometry x="1100" y="1000" width="60" height="110" as="geometry"/>
                </mxCell>
                <mxCell id="40" value="" style="endArrow=none;html=1;rounded=0;exitX=0.5;exitY=0;exitDx=0;exitDy=0;strokeWidth=3;" parent="1" source="39" edge="1">
                    <mxGeometry width="50" height="50" relative="1" as="geometry">
                        <mxPoint x="1200" y="940" as="sourcePoint"/>
                        <mxPoint x="1250" y="890" as="targetPoint"/>
                    </mxGeometry>
                </mxCell>
                <mxCell id="41" value="" style="endArrow=classic;html=1;rounded=0;entryX=0.25;entryY=1;entryDx=0;entryDy=0;strokeWidth=3;" parent="1" target="31" edge="1">
                    <mxGeometry width="50" height="50" relative="1" as="geometry">
                        <mxPoint x="900" y="1070" as="sourcePoint"/>
                        <mxPoint x="1040" y="1070" as="targetPoint"/>
                        <Array as="points">
                            <mxPoint x="1040" y="1070"/>
                        </Array>
                    </mxGeometry>
                </mxCell>
                <mxCell id="42" value="&lt;font style=&quot;font-size: 21px;&quot;&gt;艇体姿态、&lt;br&gt;状态&lt;br&gt;检测模块&lt;/font&gt;" style="rounded=0;whiteSpace=wrap;html=1;" parent="1" vertex="1">
                    <mxGeometry x="510" y="1017.5" width="140" height="95" as="geometry"/>
                </mxCell>
                <mxCell id="43" value="" style="endArrow=classic;html=1;rounded=0;entryX=1.014;entryY=0.574;entryDx=0;entryDy=0;entryPerimeter=0;strokeWidth=3;" parent="1" target="42" edge="1">
                    <mxGeometry width="50" height="50" relative="1" as="geometry">
                        <mxPoint x="720" y="1070" as="sourcePoint"/>
                        <mxPoint x="660" y="1070" as="targetPoint"/>
                    </mxGeometry>
                </mxCell>
                <mxCell id="44" value="" style="endArrow=classic;html=1;rounded=0;entryX=0;entryY=0.75;entryDx=0;entryDy=0;strokeWidth=3;" parent="1" target="28" edge="1">
                    <mxGeometry width="50" height="50" relative="1" as="geometry">
                        <mxPoint x="575" y="1017.5" as="sourcePoint"/>
                        <mxPoint x="575" y="830" as="targetPoint"/>
                        <Array as="points">
                            <mxPoint x="575" y="900"/>
                        </Array>
                    </mxGeometry>
                </mxCell>
                <mxCell id="45" value="" style="endArrow=classic;startArrow=classic;html=1;rounded=0;exitX=0;exitY=0.75;exitDx=0;exitDy=0;strokeWidth=3;" parent="1" source="8" edge="1">
                    <mxGeometry width="50" height="50" relative="1" as="geometry">
                        <mxPoint x="480" y="520" as="sourcePoint"/>
                        <mxPoint x="730" y="880" as="targetPoint"/>
                        <Array as="points">
                            <mxPoint x="480" y="520"/>
                            <mxPoint x="480" y="880"/>
                        </Array>
                    </mxGeometry>
                </mxCell>
                <mxCell id="46" value="" style="endArrow=classic;html=1;rounded=0;entryX=0;entryY=0.25;entryDx=0;entryDy=0;strokeWidth=3;" parent="1" target="8" edge="1">
                    <mxGeometry width="50" height="50" relative="1" as="geometry">
                        <mxPoint x="510" y="1070" as="sourcePoint"/>
                        <mxPoint x="440" y="490" as="targetPoint"/>
                        <Array as="points">
                            <mxPoint x="440" y="1070"/>
                            <mxPoint x="440" y="500"/>
                        </Array>
                    </mxGeometry>
                </mxCell>
            </root>
        </mxGraphModel>
    </diagram>
    <diagram id="hRTc5RmK1GzB2-QZOcUX" name="订阅-发布模型">
        <mxGraphModel dx="1095" dy="784" grid="1" gridSize="10" guides="1" tooltips="1" connect="1" arrows="1" fold="1" page="1" pageScale="1" pageWidth="850" pageHeight="1100" math="0" shadow="0">
            <root>
                <mxCell id="0"/>
                <mxCell id="1" parent="0"/>
                <mxCell id="EJB3BtpVR7ghyZefsGBD-1" value="&lt;font style=&quot;font-size: 15px;&quot;&gt;发布者&lt;/font&gt;" style="rounded=1;whiteSpace=wrap;html=1;fillColor=#dae8fc;strokeColor=#6c8ebf;" parent="1" vertex="1">
                    <mxGeometry x="40" y="280" width="80" height="40" as="geometry"/>
                </mxCell>
                <mxCell id="EJB3BtpVR7ghyZefsGBD-2" value="" style="endArrow=none;html=1;rounded=0;strokeWidth=2;" parent="1" edge="1">
                    <mxGeometry width="50" height="50" relative="1" as="geometry">
                        <mxPoint x="120" y="300" as="sourcePoint"/>
                        <mxPoint x="160" y="300" as="targetPoint"/>
                    </mxGeometry>
                </mxCell>
                <mxCell id="EJB3BtpVR7ghyZefsGBD-3" value="发布消息" style="shape=message;html=1;html=1;outlineConnect=0;labelPosition=center;verticalLabelPosition=bottom;align=center;verticalAlign=top;fillColor=#dae8fc;strokeColor=#6c8ebf;" parent="1" vertex="1">
                    <mxGeometry x="160" y="280" width="60" height="40" as="geometry"/>
                </mxCell>
                <mxCell id="EJB3BtpVR7ghyZefsGBD-4" value="数据存储池" style="sketch=0;aspect=fixed;pointerEvents=1;shadow=0;dashed=0;html=1;strokeColor=none;labelPosition=center;verticalLabelPosition=bottom;verticalAlign=top;align=center;fillColor=#00188D;shape=mxgraph.mscae.enterprise.server_generic" parent="1" vertex="1">
                    <mxGeometry x="270" y="220" width="67.2" height="140" as="geometry"/>
                </mxCell>
                <mxCell id="EJB3BtpVR7ghyZefsGBD-5" value="" style="endArrow=classic;html=1;rounded=0;entryX=-0.036;entryY=0.569;entryDx=0;entryDy=0;entryPerimeter=0;strokeWidth=2;" parent="1" target="EJB3BtpVR7ghyZefsGBD-4" edge="1">
                    <mxGeometry width="50" height="50" relative="1" as="geometry">
                        <mxPoint x="220" y="300" as="sourcePoint"/>
                        <mxPoint x="270" y="250" as="targetPoint"/>
                    </mxGeometry>
                </mxCell>
                <mxCell id="EJB3BtpVR7ghyZefsGBD-6" value="&lt;font style=&quot;font-size: 15px;&quot;&gt;订阅者&lt;/font&gt;" style="rounded=1;whiteSpace=wrap;html=1;fillColor=#dae8fc;strokeColor=#6c8ebf;" parent="1" vertex="1">
                    <mxGeometry x="480" y="220" width="80" height="40" as="geometry"/>
                </mxCell>
                <mxCell id="EJB3BtpVR7ghyZefsGBD-7" value="&lt;font style=&quot;font-size: 15px;&quot;&gt;订阅者&lt;/font&gt;" style="rounded=1;whiteSpace=wrap;html=1;fillColor=#dae8fc;strokeColor=#6c8ebf;" parent="1" vertex="1">
                    <mxGeometry x="480" y="320" width="80" height="40" as="geometry"/>
                </mxCell>
                <mxCell id="EJB3BtpVR7ghyZefsGBD-8" value="" style="endArrow=classic;html=1;rounded=0;exitX=1.021;exitY=0.205;exitDx=0;exitDy=0;exitPerimeter=0;strokeWidth=2;" parent="1" source="EJB3BtpVR7ghyZefsGBD-4" edge="1">
                    <mxGeometry relative="1" as="geometry">
                        <mxPoint x="380" y="250" as="sourcePoint"/>
                        <mxPoint x="480" y="250" as="targetPoint"/>
                    </mxGeometry>
                </mxCell>
                <mxCell id="EJB3BtpVR7ghyZefsGBD-9" value="发送" style="edgeLabel;resizable=0;html=1;align=center;verticalAlign=middle;" parent="EJB3BtpVR7ghyZefsGBD-8" connectable="0" vertex="1">
                    <mxGeometry relative="1" as="geometry"/>
                </mxCell>
                <mxCell id="EJB3BtpVR7ghyZefsGBD-10" value="" style="endArrow=classic;html=1;rounded=0;exitX=1.021;exitY=0.205;exitDx=0;exitDy=0;exitPerimeter=0;strokeWidth=2;" parent="1" edge="1">
                    <mxGeometry relative="1" as="geometry">
                        <mxPoint x="337.20000000000005" y="350" as="sourcePoint"/>
                        <mxPoint x="478.20000000000005" y="351" as="targetPoint"/>
                    </mxGeometry>
                </mxCell>
                <mxCell id="EJB3BtpVR7ghyZefsGBD-11" value="发送" style="edgeLabel;resizable=0;html=1;align=center;verticalAlign=middle;" parent="EJB3BtpVR7ghyZefsGBD-10" connectable="0" vertex="1">
                    <mxGeometry relative="1" as="geometry"/>
                </mxCell>
                <mxCell id="EJB3BtpVR7ghyZefsGBD-12" value="" style="endArrow=classic;html=1;rounded=0;strokeWidth=2;" parent="1" edge="1">
                    <mxGeometry relative="1" as="geometry">
                        <mxPoint x="480" y="230" as="sourcePoint"/>
                        <mxPoint x="340" y="230.34000000000003" as="targetPoint"/>
                    </mxGeometry>
                </mxCell>
                <mxCell id="EJB3BtpVR7ghyZefsGBD-13" value="订阅" style="edgeLabel;resizable=0;html=1;align=center;verticalAlign=middle;" parent="EJB3BtpVR7ghyZefsGBD-12" connectable="0" vertex="1">
                    <mxGeometry relative="1" as="geometry"/>
                </mxCell>
                <mxCell id="EJB3BtpVR7ghyZefsGBD-14" value="" style="endArrow=classic;html=1;rounded=0;strokeWidth=2;" parent="1" edge="1">
                    <mxGeometry relative="1" as="geometry">
                        <mxPoint x="477.20000000000005" y="330" as="sourcePoint"/>
                        <mxPoint x="337.20000000000005" y="330.3399999999999" as="targetPoint"/>
                    </mxGeometry>
                </mxCell>
                <mxCell id="EJB3BtpVR7ghyZefsGBD-15" value="订阅" style="edgeLabel;resizable=0;html=1;align=center;verticalAlign=middle;" parent="EJB3BtpVR7ghyZefsGBD-14" connectable="0" vertex="1">
                    <mxGeometry relative="1" as="geometry"/>
                </mxCell>
                <mxCell id="EJB3BtpVR7ghyZefsGBD-16" value="" style="shape=message;html=1;html=1;outlineConnect=0;labelPosition=center;verticalLabelPosition=bottom;align=center;verticalAlign=top;fillColor=#dae8fc;strokeColor=#6c8ebf;" parent="1" vertex="1">
                    <mxGeometry x="384" y="270" width="60" height="40" as="geometry"/>
                </mxCell>
            </root>
        </mxGraphModel>
    </diagram>
    <diagram id="RkuPt-Vd-4O4LYXkEqCr" name="分布式协同任务的执行方式">
        <mxGraphModel dx="1095" dy="784" grid="1" gridSize="10" guides="1" tooltips="1" connect="1" arrows="1" fold="1" page="1" pageScale="1" pageWidth="850" pageHeight="1100" math="0" shadow="0">
            <root>
                <mxCell id="0"/>
                <mxCell id="1" parent="0"/>
                <mxCell id="VC693BqslDlmtzhNhlMc-1" value="" style="verticalLabelPosition=bottom;verticalAlign=top;html=1;shape=card;whiteSpace=wrap;size=20;arcSize=12;strokeWidth=3;fillColor=#dae8fc;strokeColor=#6c8ebf;" parent="1" vertex="1">
                    <mxGeometry x="40" y="418" width="160" height="60" as="geometry"/>
                </mxCell>
                <mxCell id="VC693BqslDlmtzhNhlMc-2" value="" style="verticalLabelPosition=bottom;verticalAlign=top;html=1;shape=hexagon;perimeter=hexagonPerimeter2;arcSize=6;size=0.27;strokeWidth=3;movable=1;resizable=1;rotatable=1;deletable=1;editable=1;locked=0;connectable=1;fillColor=#dae8fc;strokeColor=#6c8ebf;" parent="1" vertex="1">
                    <mxGeometry x="200" y="310" width="190" height="60" as="geometry"/>
                </mxCell>
                <mxCell id="VC693BqslDlmtzhNhlMc-3" value="&lt;font style=&quot;font-size: 24px;&quot;&gt;任务&lt;/font&gt;" style="rounded=0;whiteSpace=wrap;html=1;strokeWidth=3;fillColor=#dae8fc;strokeColor=#6c8ebf;" parent="1" vertex="1">
                    <mxGeometry x="60" y="190" width="120" height="60" as="geometry"/>
                </mxCell>
                <mxCell id="VC693BqslDlmtzhNhlMc-4" value="" style="shape=image;html=1;verticalAlign=top;verticalLabelPosition=bottom;labelBackgroundColor=#ffffff;imageAspect=0;aspect=fixed;image=https://cdn4.iconfinder.com/data/icons/transportation-190/1000/transportation_png_new_pt_collection_boat_pt_boat-128.png;" parent="1" vertex="1">
                    <mxGeometry x="670" y="140" width="128" height="128" as="geometry"/>
                </mxCell>
                <mxCell id="VC693BqslDlmtzhNhlMc-5" value="" style="shape=image;html=1;verticalAlign=top;verticalLabelPosition=bottom;labelBackgroundColor=#ffffff;imageAspect=0;aspect=fixed;image=https://cdn4.iconfinder.com/data/icons/transportation-190/1000/transportation_transport_ferry_boat_train_ferry_boat_ship-128.png;" parent="1" vertex="1">
                    <mxGeometry x="810" y="271" width="128" height="128" as="geometry"/>
                </mxCell>
                <mxCell id="VC693BqslDlmtzhNhlMc-6" value="" style="shape=image;html=1;verticalAlign=top;verticalLabelPosition=bottom;labelBackgroundColor=#ffffff;imageAspect=0;aspect=fixed;image=https://cdn4.iconfinder.com/data/icons/transportation-190/1000/ship_icebreaker_ship_iceboat_iceberg_icebreaker_ice_boat-128.png;" parent="1" vertex="1">
                    <mxGeometry x="522" y="276" width="128" height="128" as="geometry"/>
                </mxCell>
                <mxCell id="VC693BqslDlmtzhNhlMc-7" value="" style="shape=image;html=1;verticalAlign=top;verticalLabelPosition=bottom;labelBackgroundColor=#ffffff;imageAspect=0;aspect=fixed;image=https://cdn4.iconfinder.com/data/icons/transportation-190/1000/boat_tugboat_tug_seagoing_tugboats_harbour_tugboats_ship_river_tugboats-128.png;" parent="1" vertex="1">
                    <mxGeometry x="660" y="418" width="128" height="128" as="geometry"/>
                </mxCell>
                <mxCell id="VC693BqslDlmtzhNhlMc-8" value="&lt;font style=&quot;font-size: 23px;&quot;&gt;计算与规划&lt;/font&gt;" style="text;html=1;align=center;verticalAlign=middle;resizable=1;points=[];autosize=1;strokeColor=none;fillColor=none;movable=1;rotatable=1;deletable=1;editable=1;locked=0;connectable=1;" parent="1" vertex="1">
                    <mxGeometry x="225" y="320" width="140" height="40" as="geometry"/>
                </mxCell>
                <mxCell id="VC693BqslDlmtzhNhlMc-9" value="&lt;font style=&quot;font-size: 28px;&quot;&gt;执行条件&lt;/font&gt;" style="text;html=1;align=center;verticalAlign=middle;resizable=0;points=[];autosize=1;strokeColor=none;fillColor=none;" parent="1" vertex="1">
                    <mxGeometry x="50" y="428" width="140" height="50" as="geometry"/>
                </mxCell>
                <mxCell id="VC693BqslDlmtzhNhlMc-10" value="" style="endArrow=classic;startArrow=classic;html=1;rounded=0;exitX=0.5;exitY=0;exitDx=0;exitDy=0;exitPerimeter=0;strokeWidth=3;" parent="1" source="VC693BqslDlmtzhNhlMc-1" edge="1">
                    <mxGeometry width="50" height="50" relative="1" as="geometry">
                        <mxPoint x="120" y="410" as="sourcePoint"/>
                        <mxPoint x="120" y="250" as="targetPoint"/>
                    </mxGeometry>
                </mxCell>
                <mxCell id="VC693BqslDlmtzhNhlMc-11" value="" style="endArrow=none;html=1;rounded=0;strokeWidth=3;" parent="1" edge="1">
                    <mxGeometry width="50" height="50" relative="1" as="geometry">
                        <mxPoint x="120" y="340" as="sourcePoint"/>
                        <mxPoint x="200" y="340" as="targetPoint"/>
                    </mxGeometry>
                </mxCell>
                <mxCell id="VC693BqslDlmtzhNhlMc-12" value="&lt;font color=&quot;#0000ff&quot; style=&quot;font-size: 22px;&quot;&gt;调&lt;br&gt;整&lt;/font&gt;" style="text;html=1;align=center;verticalAlign=middle;resizable=0;points=[];autosize=1;strokeColor=none;fillColor=none;" parent="1" vertex="1">
                    <mxGeometry x="60" y="300" width="50" height="70" as="geometry"/>
                </mxCell>
                <mxCell id="VC693BqslDlmtzhNhlMc-13" value="" style="endArrow=classic;html=1;rounded=0;entryX=0.625;entryY=0;entryDx=0;entryDy=0;strokeWidth=3;" parent="1" target="VC693BqslDlmtzhNhlMc-2" edge="1">
                    <mxGeometry width="50" height="50" relative="1" as="geometry">
                        <mxPoint x="180" y="220" as="sourcePoint"/>
                        <mxPoint x="400" y="220" as="targetPoint"/>
                        <Array as="points">
                            <mxPoint x="319" y="220"/>
                        </Array>
                    </mxGeometry>
                </mxCell>
                <mxCell id="VC693BqslDlmtzhNhlMc-14" value="&lt;font color=&quot;#0000ff&quot; style=&quot;font-size: 22px;&quot;&gt;分解&lt;/font&gt;" style="text;html=1;align=center;verticalAlign=middle;resizable=0;points=[];autosize=1;strokeColor=none;fillColor=none;" parent="1" vertex="1">
                    <mxGeometry x="320" y="240" width="70" height="40" as="geometry"/>
                </mxCell>
                <mxCell id="VC693BqslDlmtzhNhlMc-15" value="" style="endArrow=classic;html=1;rounded=0;entryX=0.625;entryY=1;entryDx=0;entryDy=0;strokeWidth=3;" parent="1" target="VC693BqslDlmtzhNhlMc-2" edge="1">
                    <mxGeometry width="50" height="50" relative="1" as="geometry">
                        <mxPoint x="200" y="440" as="sourcePoint"/>
                        <mxPoint x="350" y="440" as="targetPoint"/>
                        <Array as="points">
                            <mxPoint x="319" y="440"/>
                        </Array>
                    </mxGeometry>
                </mxCell>
                <mxCell id="VC693BqslDlmtzhNhlMc-16" value="&lt;font color=&quot;#0000ff&quot; style=&quot;font-size: 22px;&quot;&gt;约束&lt;/font&gt;" style="text;html=1;align=center;verticalAlign=middle;resizable=0;points=[];autosize=1;strokeColor=none;fillColor=none;" parent="1" vertex="1">
                    <mxGeometry x="320" y="400" width="70" height="40" as="geometry"/>
                </mxCell>
                <mxCell id="VC693BqslDlmtzhNhlMc-17" value="" style="endArrow=classic;html=1;rounded=0;strokeWidth=3;" parent="1" edge="1">
                    <mxGeometry width="50" height="50" relative="1" as="geometry">
                        <mxPoint x="390" y="340" as="sourcePoint"/>
                        <mxPoint x="520" y="340" as="targetPoint"/>
                    </mxGeometry>
                </mxCell>
                <mxCell id="VC693BqslDlmtzhNhlMc-18" value="&lt;font color=&quot;#0000ff&quot; style=&quot;font-size: 22px;&quot;&gt;分配执行&lt;/font&gt;" style="text;html=1;align=center;verticalAlign=middle;resizable=0;points=[];autosize=1;strokeColor=none;fillColor=none;" parent="1" vertex="1">
                    <mxGeometry x="390" y="288" width="110" height="40" as="geometry"/>
                </mxCell>
                <mxCell id="VC693BqslDlmtzhNhlMc-19" value="" style="endArrow=none;html=1;rounded=0;entryX=0.078;entryY=0.781;entryDx=0;entryDy=0;entryPerimeter=0;strokeWidth=3;" parent="1" target="VC693BqslDlmtzhNhlMc-4" edge="1">
                    <mxGeometry width="50" height="50" relative="1" as="geometry">
                        <mxPoint x="620" y="300" as="sourcePoint"/>
                        <mxPoint x="670" y="250" as="targetPoint"/>
                    </mxGeometry>
                </mxCell>
                <mxCell id="VC693BqslDlmtzhNhlMc-20" value="" style="endArrow=none;html=1;rounded=0;strokeWidth=3;" parent="1" edge="1">
                    <mxGeometry width="50" height="50" relative="1" as="geometry">
                        <mxPoint x="770" y="465" as="sourcePoint"/>
                        <mxPoint x="850" y="370" as="targetPoint"/>
                    </mxGeometry>
                </mxCell>
                <mxCell id="VC693BqslDlmtzhNhlMc-21" value="" style="endArrow=none;html=1;rounded=0;strokeWidth=3;" parent="1" edge="1">
                    <mxGeometry width="50" height="50" relative="1" as="geometry">
                        <mxPoint x="670" y="467.5" as="sourcePoint"/>
                        <mxPoint x="576" y="372.5" as="targetPoint"/>
                    </mxGeometry>
                </mxCell>
                <mxCell id="VC693BqslDlmtzhNhlMc-22" value="" style="endArrow=none;html=1;rounded=0;strokeWidth=3;" parent="1" edge="1">
                    <mxGeometry width="50" height="50" relative="1" as="geometry">
                        <mxPoint x="862" y="311" as="sourcePoint"/>
                        <mxPoint x="780" y="240" as="targetPoint"/>
                    </mxGeometry>
                </mxCell>
                <mxCell id="VC693BqslDlmtzhNhlMc-23" value="" style="endArrow=none;html=1;rounded=0;strokeWidth=3;shadow=0;labelBorderColor=none;" parent="1" edge="1">
                    <mxGeometry width="50" height="50" relative="1" as="geometry">
                        <mxPoint x="733.5" y="440" as="sourcePoint"/>
                        <mxPoint x="733.5" y="240" as="targetPoint"/>
                    </mxGeometry>
                </mxCell>
                <mxCell id="VC693BqslDlmtzhNhlMc-24" value="" style="endArrow=none;html=1;rounded=0;strokeWidth=3;" parent="1" edge="1">
                    <mxGeometry width="50" height="50" relative="1" as="geometry">
                        <mxPoint x="640" y="339.5" as="sourcePoint"/>
                        <mxPoint x="820" y="339.5" as="targetPoint"/>
                    </mxGeometry>
                </mxCell>
            </root>
        </mxGraphModel>
    </diagram>
    <diagram id="po1aO5Yr5Z7HgVwcsIMe" name="群体智能协同的任务执行方式">
        <mxGraphModel dx="1095" dy="784" grid="1" gridSize="10" guides="1" tooltips="1" connect="1" arrows="1" fold="1" page="1" pageScale="1" pageWidth="850" pageHeight="1100" math="0" shadow="0">
            <root>
                <mxCell id="0"/>
                <mxCell id="1" parent="0"/>
                <mxCell id="Lq9XfKF-2AFzxv1BFyUi-1" value="" style="shape=image;html=1;verticalAlign=top;verticalLabelPosition=bottom;labelBackgroundColor=#ffffff;imageAspect=0;aspect=fixed;image=https://cdn4.iconfinder.com/data/icons/transportation-190/1000/transportation_png_new_pt_collection_boat_pt_boat-128.png" parent="1" vertex="1">
                    <mxGeometry x="670" y="140" width="128" height="128" as="geometry"/>
                </mxCell>
                <mxCell id="Lq9XfKF-2AFzxv1BFyUi-2" value="" style="shape=image;html=1;verticalAlign=top;verticalLabelPosition=bottom;labelBackgroundColor=#ffffff;imageAspect=0;aspect=fixed;image=https://cdn4.iconfinder.com/data/icons/transportation-190/1000/transportation_transport_ferry_boat_train_ferry_boat_ship-128.png" parent="1" vertex="1">
                    <mxGeometry x="810" y="271" width="128" height="128" as="geometry"/>
                </mxCell>
                <mxCell id="Lq9XfKF-2AFzxv1BFyUi-3" value="" style="shape=image;html=1;verticalAlign=top;verticalLabelPosition=bottom;labelBackgroundColor=#ffffff;imageAspect=0;aspect=fixed;image=https://cdn4.iconfinder.com/data/icons/transportation-190/1000/ship_icebreaker_ship_iceboat_iceberg_icebreaker_ice_boat-128.png" parent="1" vertex="1">
                    <mxGeometry x="522" y="276" width="128" height="128" as="geometry"/>
                </mxCell>
                <mxCell id="Lq9XfKF-2AFzxv1BFyUi-4" value="" style="shape=image;html=1;verticalAlign=top;verticalLabelPosition=bottom;labelBackgroundColor=#ffffff;imageAspect=0;aspect=fixed;image=https://cdn4.iconfinder.com/data/icons/transportation-190/1000/boat_tugboat_tug_seagoing_tugboats_harbour_tugboats_ship_river_tugboats-128.png" parent="1" vertex="1">
                    <mxGeometry x="660" y="418" width="128" height="128" as="geometry"/>
                </mxCell>
                <mxCell id="Lq9XfKF-2AFzxv1BFyUi-5" value="" style="endArrow=none;html=1;rounded=0;entryX=0.078;entryY=0.781;entryDx=0;entryDy=0;entryPerimeter=0;strokeWidth=3;" parent="1" target="Lq9XfKF-2AFzxv1BFyUi-1" edge="1">
                    <mxGeometry width="50" height="50" relative="1" as="geometry">
                        <mxPoint x="620" y="300" as="sourcePoint"/>
                        <mxPoint x="670" y="250" as="targetPoint"/>
                    </mxGeometry>
                </mxCell>
                <mxCell id="Lq9XfKF-2AFzxv1BFyUi-6" value="" style="endArrow=none;html=1;rounded=0;strokeWidth=3;" parent="1" edge="1">
                    <mxGeometry width="50" height="50" relative="1" as="geometry">
                        <mxPoint x="770" y="465" as="sourcePoint"/>
                        <mxPoint x="850" y="370" as="targetPoint"/>
                    </mxGeometry>
                </mxCell>
                <mxCell id="Lq9XfKF-2AFzxv1BFyUi-7" value="" style="endArrow=none;html=1;rounded=0;strokeWidth=3;" parent="1" edge="1">
                    <mxGeometry width="50" height="50" relative="1" as="geometry">
                        <mxPoint x="670" y="467.5" as="sourcePoint"/>
                        <mxPoint x="576" y="372.5" as="targetPoint"/>
                    </mxGeometry>
                </mxCell>
                <mxCell id="Lq9XfKF-2AFzxv1BFyUi-8" value="" style="endArrow=none;html=1;rounded=0;strokeWidth=3;" parent="1" edge="1">
                    <mxGeometry width="50" height="50" relative="1" as="geometry">
                        <mxPoint x="862" y="311" as="sourcePoint"/>
                        <mxPoint x="780" y="240" as="targetPoint"/>
                    </mxGeometry>
                </mxCell>
                <mxCell id="Lq9XfKF-2AFzxv1BFyUi-9" value="" style="endArrow=none;html=1;rounded=0;strokeWidth=3;" parent="1" edge="1">
                    <mxGeometry width="50" height="50" relative="1" as="geometry">
                        <mxPoint x="733.5" y="440" as="sourcePoint"/>
                        <mxPoint x="733.5" y="240" as="targetPoint"/>
                    </mxGeometry>
                </mxCell>
                <mxCell id="Lq9XfKF-2AFzxv1BFyUi-10" value="" style="endArrow=none;html=1;rounded=0;strokeWidth=3;" parent="1" edge="1">
                    <mxGeometry width="50" height="50" relative="1" as="geometry">
                        <mxPoint x="640" y="339.5" as="sourcePoint"/>
                        <mxPoint x="820" y="339.5" as="targetPoint"/>
                    </mxGeometry>
                </mxCell>
                <mxCell id="Lq9XfKF-2AFzxv1BFyUi-11" value="&lt;font color=&quot;#0000ff&quot; style=&quot;font-size: 22px;&quot;&gt;本地执行&lt;/font&gt;" style="text;html=1;align=center;verticalAlign=middle;resizable=0;points=[];autosize=1;strokeColor=none;fillColor=none;" parent="1" vertex="1">
                    <mxGeometry x="420" y="320" width="110" height="40" as="geometry"/>
                </mxCell>
                <mxCell id="Lq9XfKF-2AFzxv1BFyUi-12" value="&lt;font color=&quot;#0000ff&quot; style=&quot;font-size: 22px;&quot;&gt;本地执行&lt;/font&gt;" style="text;html=1;align=center;verticalAlign=middle;resizable=0;points=[];autosize=1;strokeColor=none;fillColor=none;" parent="1" vertex="1">
                    <mxGeometry x="678" y="130" width="110" height="40" as="geometry"/>
                </mxCell>
                <mxCell id="Lq9XfKF-2AFzxv1BFyUi-13" value="&lt;font color=&quot;#0000ff&quot; style=&quot;font-size: 22px;&quot;&gt;本地执行&lt;/font&gt;" style="text;html=1;align=center;verticalAlign=middle;resizable=0;points=[];autosize=1;strokeColor=none;fillColor=none;" parent="1" vertex="1">
                    <mxGeometry x="920" y="320" width="110" height="40" as="geometry"/>
                </mxCell>
                <mxCell id="Lq9XfKF-2AFzxv1BFyUi-14" value="&lt;font color=&quot;#0000ff&quot; style=&quot;font-size: 22px;&quot;&gt;本地执行&lt;/font&gt;" style="text;html=1;align=center;verticalAlign=middle;resizable=0;points=[];autosize=1;strokeColor=none;fillColor=none;" parent="1" vertex="1">
                    <mxGeometry x="670" y="510" width="110" height="40" as="geometry"/>
                </mxCell>
                <mxCell id="Lq9XfKF-2AFzxv1BFyUi-15" value="&lt;font color=&quot;#0000ff&quot; style=&quot;font-size: 22px;&quot;&gt;有限交互&lt;/font&gt;" style="text;html=1;align=center;verticalAlign=middle;resizable=0;points=[];autosize=1;strokeColor=none;fillColor=none;rotation=45;" parent="1" vertex="1">
                    <mxGeometry x="550" y="420" width="110" height="40" as="geometry"/>
                </mxCell>
                <mxCell id="Lq9XfKF-2AFzxv1BFyUi-16" value="&lt;font color=&quot;#0000ff&quot; style=&quot;font-size: 22px;&quot;&gt;有限交互&lt;/font&gt;" style="text;html=1;align=center;verticalAlign=middle;resizable=0;points=[];autosize=1;strokeColor=none;fillColor=none;rotation=40;" parent="1" vertex="1">
                    <mxGeometry x="780" y="240" width="110" height="40" as="geometry"/>
                </mxCell>
                <mxCell id="Lq9XfKF-2AFzxv1BFyUi-17" value="" style="shape=flexArrow;endArrow=classic;startArrow=classic;html=1;rounded=0;fillColor=#dae8fc;strokeColor=#6c8ebf;" parent="1" edge="1">
                    <mxGeometry width="100" height="100" relative="1" as="geometry">
                        <mxPoint x="780" y="490" as="sourcePoint"/>
                        <mxPoint x="910" y="490" as="targetPoint"/>
                    </mxGeometry>
                </mxCell>
                <mxCell id="Lq9XfKF-2AFzxv1BFyUi-18" value="&lt;font style=&quot;font-size: 24px;&quot;&gt;任务环境&lt;/font&gt;" style="rounded=0;whiteSpace=wrap;html=1;strokeWidth=3;fillColor=#dae8fc;strokeColor=#6c8ebf;" parent="1" vertex="1">
                    <mxGeometry x="920" y="460" width="170" height="60" as="geometry"/>
                </mxCell>
                <mxCell id="Lq9XfKF-2AFzxv1BFyUi-19" value="&lt;font color=&quot;#0000ff&quot; style=&quot;font-size: 22px;&quot;&gt;分布感知&lt;/font&gt;" style="text;html=1;align=center;verticalAlign=middle;resizable=0;points=[];autosize=1;strokeColor=none;fillColor=none;" parent="1" vertex="1">
                    <mxGeometry x="798" y="506" width="110" height="40" as="geometry"/>
                </mxCell>
                <mxCell id="Lq9XfKF-2AFzxv1BFyUi-20" value="" style="shape=flexArrow;endArrow=classic;startArrow=classic;html=1;rounded=0;fillColor=#dae8fc;strokeColor=#6c8ebf;" parent="1" edge="1">
                    <mxGeometry width="100" height="100" relative="1" as="geometry">
                        <mxPoint x="548" y="200" as="sourcePoint"/>
                        <mxPoint x="678" y="200" as="targetPoint"/>
                    </mxGeometry>
                </mxCell>
                <mxCell id="Lq9XfKF-2AFzxv1BFyUi-21" value="&lt;font color=&quot;#0000ff&quot; style=&quot;font-size: 22px;&quot;&gt;反馈调整&lt;/font&gt;" style="text;html=1;align=center;verticalAlign=middle;resizable=0;points=[];autosize=1;strokeColor=none;fillColor=none;" parent="1" vertex="1">
                    <mxGeometry x="560" y="140" width="110" height="40" as="geometry"/>
                </mxCell>
                <mxCell id="Lq9XfKF-2AFzxv1BFyUi-22" value="&lt;font style=&quot;font-size: 24px;&quot;&gt;任务目标&lt;/font&gt;" style="rounded=0;whiteSpace=wrap;html=1;strokeWidth=3;fillColor=#dae8fc;strokeColor=#6c8ebf;" parent="1" vertex="1">
                    <mxGeometry x="370" y="170" width="170" height="60" as="geometry"/>
                </mxCell>
            </root>
        </mxGraphModel>
    </diagram>
</mxfile>